<svg width="26" height="26" viewBox="0 0 26 26" fill="none" xmlns="http://www.w3.org/2000/svg">
<path d="M26 13C26 20.1797 20.1797 26 13 26C5.82028 26 0 20.1797 0 13C0 5.82028 5.82028 0 13 0C20.1797 0 26 5.82028 26 13ZM23.4839 13L23.4837 12.9852L22.1175 14.1773L18.8319 11.1108L19.6944 6.68892L21.4925 6.84995C20.1878 5.05637 18.3471 3.70013 16.2134 3.01595L16.929 4.69017L13 6.86694L9.07101 4.69022L9.78659 3.016C7.65674 3.69892 5.81425 5.05354 4.50749 6.85L6.31936 6.68892L7.16814 11.1108L3.8826 14.1773L2.51634 12.9852L2.51618 13C2.51618 15.2548 3.22369 17.4007 4.53286 19.185L4.9367 17.4082L9.39958 17.9558L11.3025 22.0354L9.73501 22.9677C11.8424 23.6555 14.1534 23.6569 16.265 22.9677L14.6975 22.0354L16.6004 17.9558L21.0633 17.4082L21.4671 19.185C22.7764 17.4007 23.4839 15.2548 23.4839 13ZM10.4785 16.6469L8.9115 11.8604L13 8.89724L17.0885 11.8604L15.5357 16.6469H10.4785Z" fill="black"/>
</svg>
