<svg width="26" height="25" viewBox="0 0 26 25" fill="none" xmlns="http://www.w3.org/2000/svg">
<path d="M25.8617 24.5001C25.7739 24.6521 25.6477 24.7783 25.4956 24.8661C25.3436 24.9539 25.1711 25 24.9956 25H0.998839C0.823413 24.9998 0.651122 24.9535 0.499266 24.8657C0.34741 24.7778 0.221335 24.6516 0.1337 24.4996C0.0460651 24.3477 -4.50042e-05 24.1753 3.29602e-08 23.9999C4.50701e-05 23.8245 0.0462435 23.6521 0.133957 23.5002C2.03745 20.2094 4.9708 17.8497 8.39408 16.7311C6.70077 15.7231 5.38518 14.1871 4.64933 12.359C3.91348 10.5309 3.79807 8.51174 4.32081 6.6117C4.84356 4.71165 5.97556 3.03573 7.54298 1.84131C9.1104 0.646882 11.0266 0 12.9972 0C14.9679 0 16.884 0.646882 18.4514 1.84131C20.0189 3.03573 21.1509 4.71165 21.6736 6.6117C22.1964 8.51174 22.0809 10.5309 21.3451 12.359C20.6092 14.1871 19.2936 15.7231 17.6003 16.7311C21.0236 17.8497 23.957 20.2094 25.8605 23.5002C25.9484 23.6521 25.9948 23.8245 25.995 24C25.9953 24.1755 25.9493 24.348 25.8617 24.5001Z" fill="#A1A1A1"/>
</svg>
