<?xml version="1.0" standalone="no"?>
<!DOCTYPE svg PUBLIC "-//W3C//DTD SVG 20010904//EN"
 "http://www.w3.org/TR/2001/REC-SVG-20010904/DTD/svg10.dtd">
<svg version="1.0" xmlns="http://www.w3.org/2000/svg"
 width="500.000000pt" height="500.000000pt" viewBox="0 0 500.000000 500.000000"
 preserveAspectRatio="xMidYMid meet">

<g transform="translate(0.000000,500.000000) scale(0.100000,-0.100000)"
fill="#000000" stroke="none">
<path d="M2335 3753 c-195 -41 -384 -169 -497 -336 -39 -57 -98 -176 -98 -197
0 -6 38 -10 99 -10 l98 0 38 64 c75 129 207 234 350 279 53 16 95 21 175 21
80 0 122 -5 175 -21 143 -45 275 -150 350 -279 l38 -64 99 0 c115 0 111 -8 53
115 -79 165 -244 317 -422 390 -133 53 -316 69 -458 38z"/>
<path d="M2430 3530 c-126 -16 -231 -69 -326 -164 -114 -114 -165 -237 -165
-396 0 -187 84 -350 241 -465 139 -102 364 -128 529 -60 80 33 121 61 188 126
68 67 109 131 140 221 37 104 37 251 0 357 -89 253 -345 414 -607 381z m214
-181 c127 -47 214 -152 252 -301 46 -177 -45 -367 -214 -450 -63 -31 -72 -33
-177 -33 -101 0 -115 2 -168 28 -82 41 -160 121 -199 203 -92 198 -6 445 188
540 94 46 217 51 318 13z"/>
<path d="M2446 3319 c-14 -17 -26 -34 -26 -38 0 -3 19 -28 43 -54 l42 -48 68
7 c65 7 70 9 94 45 16 24 22 45 19 57 -10 29 -94 62 -159 62 -49 0 -58 -3 -81
-31z"/>
<path d="M2338 3237 c-47 -28 -64 -51 -88 -123 -22 -62 -19 -72 28 -118 36
-33 54 -32 122 12 40 25 48 37 64 90 18 59 18 62 1 89 -28 45 -57 73 -74 73
-9 0 -33 -10 -53 -23z"/>
<path d="M2685 3220 l-28 -41 17 -62 c23 -83 37 -102 98 -133 l52 -26 23 26
c28 33 29 69 3 140 -23 60 -89 136 -119 136 -10 0 -30 -18 -46 -40z"/>
<path d="M2199 3193 c-38 -55 -64 -121 -74 -186 -20 -130 94 41 132 199 3 14
-1 23 -11 27 -11 4 -25 -8 -47 -40z"/>
<path d="M2380 2972 c-62 -31 -80 -58 -80 -120 0 -37 5 -49 33 -74 48 -46 86
-59 130 -46 58 18 72 38 86 117 6 40 9 76 6 81 -8 13 -97 70 -109 69 -6 0 -36
-12 -66 -27z"/>
<path d="M2663 2982 c-70 -39 -80 -54 -92 -131 -6 -40 -9 -77 -6 -82 9 -13 81
-49 100 -49 26 0 124 73 134 100 6 14 11 45 13 69 l2 44 -60 34 c-59 32 -60
32 -91 15z"/>
<path d="M2131 2885 c-1 -21 44 -125 54 -125 3 0 -2 15 -11 33 -10 17 -23 50
-30 72 -7 22 -13 31 -13 20z"/>
<path d="M2233 2780 c-33 -13 -31 -59 5 -92 73 -68 155 -99 184 -70 22 22 -12
76 -77 125 -67 49 -75 52 -112 37z"/>
<path d="M2738 2734 c-74 -52 -127 -109 -115 -121 21 -20 136 52 184 115 61
81 38 83 -69 6z"/>
<path d="M2455 2590 c-13 -6 5 -8 55 -8 52 0 67 2 50 8 -33 11 -80 11 -105 0z"/>
<path d="M1711 3097 c-6 -35 -11 -92 -11 -127 0 -35 5 -92 11 -127 l11 -63
100 0 c99 0 100 0 94 23 -3 12 -11 57 -18 99 -10 74 -4 154 18 236 6 22 5 22
-94 22 l-100 0 -11 -63z"/>
<path d="M3084 3138 c22 -80 29 -171 18 -240 -6 -40 -15 -83 -18 -95 -6 -23
-5 -23 94 -23 l101 0 8 38 c10 48 10 256 0 305 l-8 37 -101 0 c-99 0 -100 0
-94 -22z"/>
<path d="M1740 2728 c1 -27 58 -146 99 -206 84 -124 233 -245 359 -292 119
-45 173 -55 302 -55 174 0 297 36 432 124 138 90 239 209 305 361 l33 75 -103
3 c-57 2 -103 -1 -105 -7 -11 -32 -85 -138 -127 -182 -197 -205 -525 -244
-761 -91 -77 50 -175 156 -209 226 l-27 56 -99 0 c-73 0 -99 -3 -99 -12z"/>
<path d="M1251 1871 c-36 -36 -37 -82 -1 -148 28 -50 31 -62 21 -85 -6 -16
-18 -28 -27 -28 -13 0 -15 8 -12 40 3 35 1 40 -18 40 -17 0 -23 -8 -28 -40 -9
-55 6 -80 48 -80 45 0 77 36 83 94 5 38 1 53 -21 87 -30 45 -32 92 -3 97 13 3
17 -3 17 -27 0 -24 4 -31 19 -31 21 0 32 44 19 79 -10 28 -70 29 -97 2z"/>
<path d="M1421 1866 c-15 -16 -31 -57 -47 -126 -35 -149 -31 -170 31 -170 60
0 78 31 112 198 20 96 14 115 -38 120 -26 2 -40 -3 -58 -22z m63 -25 c3 -5 -7
-57 -22 -117 -20 -83 -31 -110 -44 -112 -13 -3 -18 3 -18 21 0 25 38 195 47
210 6 10 31 9 37 -2z"/>
<path d="M1614 1875 c-27 -18 -39 -49 -63 -161 -23 -101 -19 -132 15 -140 45
-11 74 4 94 49 25 54 25 77 1 77 -14 0 -23 -12 -33 -42 -8 -26 -20 -44 -30
-46 -24 -5 -23 15 2 123 27 112 29 115 52 115 18 0 19 -5 13 -40 -6 -35 -5
-40 13 -40 30 0 45 83 20 108 -16 16 -59 15 -84 -3z"/>
<path d="M1792 1883 c-20 -8 -39 -52 -61 -147 -32 -135 -27 -166 30 -166 39 0
68 28 84 83 14 46 14 47 -8 47 -19 0 -25 -9 -35 -45 -11 -42 -32 -59 -46 -37
-5 9 37 203 48 221 4 6 14 11 23 11 13 0 15 -8 10 -41 -5 -37 -3 -40 16 -37
27 4 43 61 28 95 -8 17 -18 23 -43 22 -18 0 -39 -3 -46 -6z"/>
<path d="M1922 1788 c-13 -57 -29 -129 -37 -160 l-13 -58 53 0 c44 0 53 3 58
20 4 17 0 20 -24 20 -33 0 -33 3 -18 66 10 39 14 44 40 44 19 0 29 5 29 15 0
9 -9 15 -25 15 -29 0 -28 -2 -14 56 10 39 15 44 39 44 23 0 40 15 40 36 0 2
-24 4 -53 4 l-52 0 -23 -102z"/>
<path d="M2090 1883 c0 -4 -16 -75 -35 -157 -19 -82 -35 -150 -35 -152 0 -2
11 -4 24 -4 19 0 25 6 30 38 13 80 26 112 46 112 22 0 24 -9 11 -60 -23 -90
-23 -90 2 -90 21 0 25 7 36 65 7 36 10 76 7 90 -4 14 -2 25 3 25 15 0 32 56
29 96 l-3 39 -57 3 c-32 2 -58 -1 -58 -5z m80 -48 c0 -33 -23 -75 -42 -75 -17
0 -19 4 -13 33 11 48 23 67 40 61 8 -4 15 -12 15 -19z"/>
<path d="M2365 1870 c-15 -16 -19 -35 -18 -79 2 -52 -1 -61 -27 -86 -60 -57
-61 -135 -2 -135 16 0 34 6 41 13 11 10 14 10 18 0 3 -7 14 -13 25 -13 18 0
20 5 15 33 -4 26 0 41 19 63 38 47 28 77 -12 33 l-19 -21 -6 28 c-4 22 1 37
23 62 29 34 42 69 36 99 -5 28 -69 30 -93 3z m65 -29 c0 -10 -9 -29 -20 -42
l-19 -24 -1 36 c0 20 3 39 7 42 13 14 33 6 33 -12z m-71 -217 c-34 -41 -54 10
-22 56 l17 24 8 -33 c6 -22 5 -37 -3 -47z"/>
<path d="M2600 1883 c0 -5 -16 -75 -35 -157 -19 -82 -35 -150 -35 -152 0 -2
11 -4 24 -4 19 0 25 6 30 38 3 20 11 54 16 75 10 32 15 37 40 37 23 0 30 5 30
20 0 15 -7 20 -25 20 -28 0 -29 1 -14 53 8 32 14 37 38 37 24 0 41 15 41 36 0
2 -25 4 -55 4 -30 0 -55 -3 -55 -7z"/>
<path d="M2756 1867 c-16 -16 -30 -52 -45 -116 -33 -146 -27 -181 31 -181 50
0 73 35 103 160 32 135 27 160 -30 160 -24 0 -44 -8 -59 -23z m64 -34 c0 -10
-7 -47 -16 -83 -30 -131 -34 -140 -54 -140 -25 0 -25 2 1 114 25 104 34 126
54 126 8 0 15 -8 15 -17z"/>
<path d="M2952 1883 c-20 -8 -39 -52 -61 -147 -33 -138 -27 -166 34 -166 50 0
71 32 100 150 28 118 30 141 13 158 -12 12 -62 15 -86 5z m48 -55 c0 -44 -45
-210 -58 -216 -29 -11 -31 15 -8 115 13 55 27 106 30 112 12 20 36 12 36 -11z"/>
<path d="M3087 1870 c-4 -15 0 -20 14 -20 15 0 18 -5 14 -22 -3 -13 -16 -70
-30 -128 -30 -126 -30 -130 -5 -130 21 0 23 6 61 178 18 80 27 102 40 102 14
0 29 19 29 36 0 2 -26 4 -59 4 -50 0 -59 -3 -64 -20z"/>
<path d="M3240 1886 c0 -3 -16 -73 -35 -156 -19 -83 -35 -153 -35 -156 0 -8
79 -4 105 6 32 12 57 68 54 124 -1 22 6 58 15 78 19 44 21 79 4 96 -11 11
-108 18 -108 8z m71 -66 c-5 -36 -20 -60 -37 -60 -12 0 -14 8 -8 38 9 48 12
54 32 50 12 -2 16 -11 13 -28z m-23 -117 c5 -34 -24 -93 -47 -93 -17 0 -18 4
-11 33 4 17 11 45 14 60 8 34 39 34 44 0z"/>
<path d="M3396 1737 c-31 -85 -56 -157 -56 -160 0 -4 9 -7 19 -7 12 0 23 11
30 30 7 23 16 30 35 30 22 0 26 -5 26 -30 0 -23 5 -30 19 -30 21 0 25 26 37
213 l7 107 -30 0 c-30 0 -31 -2 -87 -153z m69 11 c-7 -77 -15 -94 -38 -85 -12
4 -10 18 12 81 14 42 28 76 30 76 1 0 0 -33 -4 -72z"/>
<path d="M3595 1868 c-3 -13 -19 -81 -35 -151 -17 -71 -30 -133 -30 -138 0 -6
23 -9 52 -7 41 2 54 7 56 21 3 13 -3 17 -28 17 -25 0 -30 3 -26 18 9 31 56
240 56 251 0 22 -40 11 -45 -11z"/>
<path d="M3735 1868 c-3 -13 -19 -81 -35 -151 -17 -71 -30 -133 -30 -138 0 -6
23 -9 52 -7 41 2 54 7 56 21 3 13 -3 17 -28 17 -25 0 -30 3 -26 18 9 31 56
240 56 251 0 22 -40 11 -45 -11z"/>
</g>
</svg>
