<svg width="25" height="25" viewBox="0 0 25 25" fill="none" xmlns="http://www.w3.org/2000/svg">
<path d="M24.002 11.4426V22.9998C24.002 23.5303 23.7913 24.0391 23.4162 24.4142C23.0411 24.7893 22.5324 25 22.0019 25H17.0014C16.471 25 15.9622 24.7893 15.5871 24.4142C15.212 24.0391 15.0013 23.5303 15.0013 22.9998V17.9994C15.0013 17.7342 14.8959 17.4798 14.7084 17.2922C14.5208 17.1047 14.2664 16.9993 14.0012 16.9993H10.0009C9.73561 16.9993 9.48124 17.1047 9.29368 17.2922C9.10613 17.4798 9.00077 17.7342 9.00077 17.9994V22.9998C9.00077 23.5303 8.79003 24.0391 8.41493 24.4142C8.03982 24.7893 7.53107 25 7.0006 25H2.00017C1.46969 25 0.960941 24.7893 0.585836 24.4142C0.210732 24.0391 2.31117e-08 23.5303 2.31117e-08 22.9998V11.4426C-4.20571e-05 11.1658 0.0573789 10.892 0.168629 10.6385C0.279879 10.385 0.442535 10.1573 0.646305 9.96997L10.6472 0.53417L10.6609 0.520418C11.0291 0.185556 11.5089 0 12.0066 0C12.5044 0 12.9842 0.185556 13.3524 0.520418C13.3567 0.52531 13.3612 0.529904 13.3661 0.53417L23.367 9.96997C23.5687 10.1583 23.7293 10.3864 23.8386 10.6399C23.9479 10.8933 24.0035 11.1666 24.002 11.4426Z" fill="#ED7550"/>
</svg>
