<svg width="16" height="16" viewBox="0 0 16 16" fill="none" xmlns="http://www.w3.org/2000/svg">
<path d="M6.66667 15.3333C6.66667 15.5101 6.59643 15.6797 6.4714 15.8047C6.34638 15.9298 6.17681 16 6 16H1.33333C0.979711 16 0.640573 15.8595 0.390524 15.6095C0.140476 15.3594 0 15.0203 0 14.6667V1.33333C0 0.979711 0.140476 0.640573 0.390524 0.390524C0.640573 0.140476 0.979711 0 1.33333 0H6C6.17681 0 6.34638 0.070238 6.4714 0.195262C6.59643 0.320287 6.66667 0.489856 6.66667 0.666667C6.66667 0.843478 6.59643 1.01305 6.4714 1.13807C6.34638 1.2631 6.17681 1.33333 6 1.33333H1.33333V14.6667H6C6.17681 14.6667 6.34638 14.7369 6.4714 14.8619C6.59643 14.987 6.66667 15.1565 6.66667 15.3333ZM15.805 7.52833L12.4717 4.195C12.3784 4.10166 12.2596 4.03808 12.1302 4.01231C12.0008 3.98655 11.8667 3.99975 11.7448 4.05025C11.6229 4.10075 11.5188 4.18628 11.4455 4.29601C11.3723 4.40574 11.3332 4.53474 11.3333 4.66667V7.33333H6C5.82319 7.33333 5.65362 7.40357 5.5286 7.5286C5.40357 7.65362 5.33333 7.82319 5.33333 8C5.33333 8.17681 5.40357 8.34638 5.5286 8.47141C5.65362 8.59643 5.82319 8.66667 6 8.66667H11.3333V11.3333C11.3332 11.4653 11.3723 11.5943 11.4455 11.704C11.5188 11.8137 11.6229 11.8992 11.7448 11.9497C11.8667 12.0002 12.0008 12.0135 12.1302 11.9877C12.2596 11.9619 12.3784 11.8983 12.4717 11.805L15.805 8.47167C15.867 8.40975 15.9162 8.33623 15.9497 8.25529C15.9833 8.17436 16.0005 8.08761 16.0005 8C16.0005 7.91239 15.9833 7.82564 15.9497 7.74471C15.9162 7.66377 15.867 7.59025 15.805 7.52833Z" fill="#0D89EC"/>
</svg>
